<?xml version="1.0" encoding="UTF-8"?><svg id="Layer_2" xmlns="http://www.w3.org/2000/svg" viewBox="0 0 148.07 129.09"><defs><style>.cls-1{fill:#ff9d6c;stroke:#999;stroke-miterlimit:10;stroke-width:2px;}</style></defs><g id="splash_login"><g id="carrot_icon"><path class="cls-1" d="M144.84,6.29c-2.96-2.53-7.76-2.53-10.73,0l-17.76,15.14,5.63-11.46c1.61-3.29-.2-7.08-4.07-8.46-3.88-1.38-8.31,.18-9.93,3.47l-16.21,33c-6.05-.78-13.3,.39-20.78,3.24,4.17,5.74,5.04,16.47,5.04,16.47,.27,1.76-1.2,3.37-3.26,3.59-1.88,.21-3.62-.81-4.11-2.32,0,0-2.37-8.81-6.51-13.55-4.28,2.38-8.52,5.23-12.5,8.63-.99,.84-2.05,1.8-3.15,2.82,5.26,6.56,6.72,16.31,7.15,19.92,.27,1.76-1.2,3.37-3.26,3.59-1.88,.21-3.62-.81-4.11-2.32,0,0-1.96-8.37-6.94-14.1-4.27,4.46-8.86,9.62-13.33,15.05,4.14,6.3,5.26,16.85,5.26,16.85,.27,1.76-1.2,3.37-3.26,3.6-1.88,.21-3.62-.81-4.11-2.32,0,0-2.02-7.23-4.21-10.16C6.69,104.02-3.18,121.5,2.78,126.57c10.55,8.99,66.82-24.39,85.1-39.98,13.2-11.26,20.09-24.76,18.95-34.78l32.11-9.62c3.95-1.18,6.03-4.87,4.64-8.24-1.39-3.37-5.72-5.14-9.67-3.96l-9.49,2.84,20.42-17.41c2.96-2.53,2.96-6.62,0-9.14Z"/></g></g></svg>