<?xml version="1.0" encoding="UTF-8"?><svg id="Layer_2" xmlns="http://www.w3.org/2000/svg" viewBox="0 0 66.64 48.49"><defs><style>.cls-1{fill:#fff;}</style></defs><g id="active_tasks"><g id="active_bar_window"><g id="checkmark_icon_copy_2"><path class="cls-1" d="M64.68,11.38L29.53,46.53c-2.6,2.6-6.83,2.6-9.43,0L1.95,28.39c-2.6-2.6-2.6-6.83,0-9.43,2.6-2.6,6.83-2.6,9.43,0l13.43,13.43L55.25,1.95c2.6-2.6,6.83-2.6,9.43,0,2.6,2.6,2.6,6.83,0,9.43Z"/><path class="cls-1" d="M64.68,11.38L29.53,46.53c-2.6,2.6-6.83,2.6-9.43,0L1.95,28.39c-2.6-2.6-2.6-6.83,0-9.43,2.6-2.6,6.83-2.6,9.43,0l13.43,13.43L55.25,1.95c2.6-2.6,6.83-2.6,9.43,0,2.6,2.6,2.6,6.83,0,9.43Z"/></g></g></g></svg>