<?xml version="1.0" encoding="UTF-8"?><svg id="Layer_2" xmlns="http://www.w3.org/2000/svg" xmlns:xlink="http://www.w3.org/1999/xlink" viewBox="0 0 66.64 48.49"><defs><style>.cls-1{fill:#1a1a1a;}.cls-2{fill:url(#linear-gradient);}</style><linearGradient id="linear-gradient" x1="0" y1="24.24" x2="66.64" y2="24.24" gradientTransform="matrix(1, 0, 0, 1, 0, 0)" gradientUnits="userSpaceOnUse"><stop offset="0" stop-color="#1a1a1a"/><stop offset=".25" stop-color="#1a1a1a" stop-opacity=".47"/><stop offset=".56" stop-color="#1a1a1a" stop-opacity=".11"/><stop offset="1" stop-color="#1a1a1a" stop-opacity="0"/></linearGradient></defs><g id="active_tasks"><g id="active_bar_window"><g id="checkmark_icon"><path class="cls-2" d="M64.68,11.38L29.53,46.53c-2.6,2.6-6.83,2.6-9.43,0L1.95,28.39c-2.6-2.6-2.6-6.83,0-9.43,2.6-2.6,6.83-2.6,9.43,0l13.43,13.43L55.25,1.95c2.6-2.6,6.83-2.6,9.43,0,2.6,2.6,2.6,6.83,0,9.43Z"/><path class="cls-1" d="M64.68,11.38L29.53,46.53c-2.6,2.6-6.83,2.6-9.43,0L1.95,28.39c-2.6-2.6-2.6-6.83,0-9.43,2.6-2.6,6.83-2.6,9.43,0l13.43,13.43L55.25,1.95c2.6-2.6,6.83-2.6,9.43,0,2.6,2.6,2.6,6.83,0,9.43Z"/></g></g></g></svg>