<?xml version="1.0" encoding="UTF-8"?><svg id="Layer_2" xmlns="http://www.w3.org/2000/svg" viewBox="0 0 140.17 140.17"><defs><style>.cls-1{fill:#79ff6e;stroke:#999;stroke-miterlimit:10;stroke-width:2px;}.cls-2{fill:#1a1a1a;}</style></defs><g id="active_tasks"><g id="badges"><circle class="cls-1" cx="70.08" cy="70.08" r="69.08"/><g id="heart_icon"><g><path d="M99.03,38.21c-12.13-4.03-25.17,2.69-29.34,15.02-4.16-12.34-17.2-19.04-29.34-15.02-12.27,4.09-18.97,17.61-14.98,30.22,3.83,12.03,39.36,44.23,43.91,44.23s40.87-32.17,44.7-44.23c4-12.64-2.69-26.15-14.96-30.22Z"/><path class="cls-2" d="M99.03,38.21c-12.13-4.03-25.17,2.69-29.34,15.02-4.16-12.34-17.2-19.04-29.34-15.02-12.27,4.09-18.97,17.61-14.98,30.22,3.83,12.03,39.36,44.23,43.91,44.23s40.87-32.17,44.7-44.23c4-12.64-2.69-26.15-14.96-30.22Z"/></g></g></g></g></svg>