<?xml version="1.0" encoding="UTF-8"?><svg id="Layer_2" xmlns="http://www.w3.org/2000/svg" viewBox="0 0 86.27 61"><defs><style>.cls-1{fill:#999;}</style></defs><g id="menu_icon_set"><g id="menu_icon_copy_2"><path class="cls-1" d="M86.27,30.5c0,2.91-3.86,5.27-8.63,5.27H8.63c-4.76,0-8.63-2.36-8.63-5.27s3.86-5.27,8.63-5.27H77.64c4.76,0,8.63,2.36,8.63,5.27Z"/><path class="cls-1" d="M86.27,5.27c0,2.91-3.86,5.27-8.63,5.27H8.63C3.86,10.53,0,8.17,0,5.27S3.86,0,8.63,0H77.64c4.76,0,8.63,2.36,8.63,5.27Z"/><path class="cls-1" d="M86.27,55.73c0,2.91-3.86,5.27-8.63,5.27H8.63c-4.76,0-8.63-2.36-8.63-5.27s3.86-5.27,8.63-5.27H77.64c4.76,0,8.63,2.36,8.63,5.27Z"/></g></g></svg>