<?xml version="1.0" encoding="UTF-8"?><svg id="Layer_2" xmlns="http://www.w3.org/2000/svg" viewBox="0 0 140.16 140.16"><defs><style>.cls-1{fill:#cf7dff;stroke:#999;stroke-miterlimit:10;stroke-width:2px;}.cls-2{fill:#1a1a1a;}</style></defs><g id="desktop_homepage"><g id="badge_tray"><g><circle class="cls-1" cx="70.08" cy="70.08" r="69.08"/><path class="cls-2" d="M112.89,63.99c1.75-1.7,2.37-4.2,1.61-6.53-.76-2.32-2.72-3.98-5.14-4.34l-21.51-3.13c-.92-.13-1.71-.71-2.12-1.54l-9.62-19.49c-1.08-2.19-3.27-3.55-5.71-3.55s-4.63,1.36-5.71,3.55l-9.62,19.49c-.41,.83-1.2,1.41-2.12,1.54l-21.51,3.13c-2.42,.35-4.39,2.01-5.14,4.34-.75,2.32-.14,4.83,1.61,6.53l15.56,15.17c.66,.65,.97,1.58,.81,2.49l-3.67,21.42c-.33,1.89,.17,3.72,1.39,5.17,1.9,2.25,5.21,2.94,7.85,1.55l19.23-10.11c.8-.42,1.82-.42,2.62,0l19.24,10.11c.94,.49,1.93,.74,2.96,.74,1.88,0,3.66-.84,4.89-2.29,1.22-1.45,1.71-3.28,1.39-5.17l-3.67-21.42c-.16-.91,.15-1.84,.81-2.49l15.56-15.17h.01Z"/></g></g></g></svg>