<?xml version="1.0" encoding="UTF-8"?><svg id="Layer_2" xmlns="http://www.w3.org/2000/svg" viewBox="0 0 140.17 140.17"><defs><style>.cls-1{fill:#6effff;stroke:#999;stroke-miterlimit:10;stroke-width:2px;}.cls-2{fill:#1a1a1a;}</style></defs><g id="active_tasks"><g id="badge_info"><g id="bagescreate_task_pop_up_copy"><circle class="cls-1" cx="70.08" cy="70.08" r="69.08"/><path class="cls-2" d="M82.92,90.97l-5.29-1.68,22.77-44.05c.61-1.18,.41-3.08-.48-4.4l-11.97-17.95c-.54-.8-1.45-1.46-2.5-1.79s-2.17-.33-3.07,.02l-20.14,7.75c-1.49,.57-2.75,2-2.93,3.32l-6.83,49.11-5.29-1.68c-2.55-.81-5.08-.01-5.65,1.78l-1.28,4.04c-.57,1.79,1.04,3.9,3.59,4.71l11.24,3.57-2.24,7.05c-3.5,.51-6.28,2.34-7.16,5.12-1.43,4.51,2.63,9.84,9.05,11.88,6.42,2.04,12.81,.03,14.25-4.48,.88-2.78-.33-5.88-2.89-8.32l2.24-7.05,11.24,3.57c2.55,.81,5.08,.01,5.65-1.78l1.28-4.04c.57-1.79-1.04-3.9-3.59-4.71Z"/></g></g></g></svg>